<svg width="204" height="204" viewBox="0 0 204 204" fill="none" xmlns="http://www.w3.org/2000/svg">
<path d="M80.7159 96H72L97.2091 27H105.791L131 96H122.284L101.768 37.916H101.232L80.7159 96ZM83.9341 69.0469H119.066V76.459H83.9341V69.0469Z" fill="#606060"/>
<path d="M85.1425 117.792C93.6091 143.833 110.013 158.714 137 166.458C135.79 167.824 133.976 170.557 133.371 172C105.855 163.041 88.6955 147.401 79.1706 119.538L85.1425 117.792ZM119.462 118.171L125.056 119.918C115.758 146.49 99.1274 164.56 71.0821 171.924C70.1749 170.254 68.3607 167.672 67 166.306C94.2894 159.928 111.298 142.466 119.462 118.171ZM136.093 114.907V120.525H67.7559V114.907H136.093ZM105.099 102V118.323H99.2786V102H105.099Z" fill="#606060"/>
<path fill-rule="evenodd" clip-rule="evenodd" d="M63.9325 54.0707C64.9981 56.0059 64.2931 58.4384 62.3579 59.504C44.8957 69.1188 34 84.7686 34 102C34 119.231 44.8957 134.881 62.3579 144.496C64.2931 145.562 64.9981 147.994 63.9325 149.929C62.867 151.865 60.4344 152.57 58.4993 151.504C39.1736 140.863 26 122.86 26 102C26 81.1404 39.1736 63.1369 58.4993 52.496C60.4344 51.4305 62.867 52.1355 63.9325 54.0707ZM138.067 54.0707C139.133 52.1355 141.566 51.4305 143.501 52.496C162.826 63.1369 176 81.1404 176 102C176 122.86 162.826 140.863 143.501 151.504C141.566 152.57 139.133 151.865 138.067 149.929C137.002 147.994 137.707 145.562 139.642 144.496C157.104 134.881 168 119.231 168 102C168 84.7686 157.104 69.1188 139.642 59.504C137.707 58.4384 137.002 56.0059 138.067 54.0707Z" fill="#606060"/>
<path fill-rule="evenodd" clip-rule="evenodd" d="M138 55.5C138 53.567 139.567 52 141.5 52H164.5C166.433 52 168 53.567 168 55.5C168 57.433 166.433 59 164.5 59H141.5C139.567 59 138 57.433 138 55.5Z" fill="#606060"/>
<path fill-rule="evenodd" clip-rule="evenodd" d="M34 149.5C34 147.567 35.567 146 37.5 146H60.5C62.433 146 64 147.567 64 149.5C64 151.433 62.433 153 60.5 153H37.5C35.567 153 34 151.433 34 149.5Z" fill="#606060"/>
<path fill-rule="evenodd" clip-rule="evenodd" d="M180 7H24C14.6112 7 7 14.6112 7 24V180C7 189.389 14.6112 197 24 197H180C189.389 197 197 189.389 197 180V24C197 14.6112 189.389 7 180 7ZM24 0C10.7452 0 0 10.7452 0 24V180C0 193.255 10.7452 204 24 204H180C193.255 204 204 193.255 204 180V24C204 10.7452 193.255 0 180 0H24Z" fill="#606060"/>
</svg>
